<?xml version="1.0" standalone="no"?><!DOCTYPE svg PUBLIC "-//W3C//DTD SVG 1.1//EN" "http://www.w3.org/Graphics/SVG/1.1/DTD/svg11.dtd"><svg t="1669825098169" class="icon" viewBox="0 0 1024 1024" version="1.1" xmlns="http://www.w3.org/2000/svg" p-id="3021" xmlns:xlink="http://www.w3.org/1999/xlink" width="200" height="200"><path d="M446.805333 955.716267a381.405867 381.405867 0 0 0 133.597867 66.730666c2.7136 0.733867 13.346133 1.2288 29.0816 1.536h-404.650667a34.1504 34.1504 0 0 1 0-68.266666H446.805333z m318.293334-570.043734l3.1232 0.699734a308.002133 308.002133 0 0 1 123.2896 66.884266l6.109866 5.597867a33.109333 33.109333 0 0 1 10.3424 27.818667l-6.417066 57.275733a8.0384 8.0384 0 0 0 4.949333 8.2944l54.442667 23.261867a34.133333 34.133333 0 0 1 18.858666 19.899733l0.8192 2.696533a287.914667 287.914667 0 0 1 1.9456 136.789334l-1.9456 7.936c-2.6112 10.069333-9.8816 18.432-19.694933 22.613333l-54.442667 23.261867a8.0384 8.0384 0 0 0-4.932266 8.2944l6.417066 57.224533a33.024 33.024 0 0 1-8.328533 25.770667l-1.9968 2.048a307.319467 307.319467 0 0 1-121.344 70.126933l-8.072533 2.338133c-2.048 0.546133-4.1472 0.9216-6.263467 1.092267l-3.191467 0.136533c-7.389867 0-14.592-2.286933-20.565333-6.5024l-48.008533-34.065066a8.567467 8.567467 0 0 0-9.8816 0l-48.008534 34.065066a35.669333 35.669333 0 0 1-26.914133 5.9392l-3.106133-0.7168a308.0192 308.0192 0 0 1-123.2896-66.8672l-6.144-5.614933a33.109333 33.109333 0 0 1-10.325334-27.8016l6.434134-57.224533a8.055467 8.055467 0 0 0-4.949334-8.2944l-54.442666-23.261867a34.133333 34.133333 0 0 1-18.858667-19.899733l-0.836267-2.7136a287.914667 287.914667 0 0 1-1.928533-136.789334l1.928533-7.936c2.628267-10.069333 9.898667-18.397867 19.712-22.596266l54.408534-23.261867a8.055467 8.055467 0 0 0 4.949333-8.2944l-6.417067-57.224533a33.024 33.024 0 0 1 8.328534-25.770667l1.9968-2.048a307.3536 307.3536 0 0 1 121.344-70.144l8.072533-2.338133a35.703467 35.703467 0 0 1 30.020267 5.256533l48.008533 34.048a8.567467 8.567467 0 0 0 9.898667 0l48.008533-34.048a35.618133 35.618133 0 0 1 23.773867-6.382933l3.1232 0.426666zM853.333333 0C947.5072 0 1024 71.406933 1024 159.232v400.503467a5.205333 5.205333 0 0 0-0.989867-1.604267l-0.546133-0.392533-66.747733-28.3648v-67.6864l1.467733-12.868267a39.901867 39.901867 0 0 0-1.4336-15.940267l-0.034133-273.629866C955.733333 109.090133 909.824 68.266667 853.333333 68.266667H170.666667c-56.507733 0-102.4 40.789333-102.4 90.965333v568.9344c0 50.158933 45.892267 90.965333 102.4 90.965333h239.36c3.566933 1.536 5.888 4.864 6.075733 8.533334l-0.0512 1.604266-6.570667 58.129067H170.683733C76.6464 887.432533 0 816.042667 0 728.200533V159.249067C0 71.406933 76.629333 0 170.683733 0H853.333333z m-88.302933 456.174933l-33.706667 23.893334a79.701333 79.701333 0 0 1-92.1088 0l-33.723733-23.893334a237.789867 237.789867 0 0 0-71.850667 40.277334l4.522667 40.157866c3.771733 32.750933-14.8992 64.068267-46.062933 77.294934l-38.1952 16.315733a222.993067 222.993067 0 0 0 0 80.384l38.1952 16.3328c31.163733 13.226667 49.834667 44.544 46.08 77.294933l-4.5568 40.174934a237.7216 237.7216 0 0 0 71.850666 40.277333l33.706667-23.927467a79.394133 79.394133 0 0 1 41.5744-14.523733l4.5056-0.119467a79.530667 79.530667 0 0 1 46.08 14.6432l33.6896 23.893334a237.602133 237.602133 0 0 0 71.850667-40.260267l-4.5056-40.174933c-3.754667-32.750933 14.8992-64.068267 46.045866-77.277867l38.212267-16.2816a222.993067 222.993067 0 0 0 0-80.401067l-38.212267-16.349866c-31.146667-13.226667-49.8176-44.544-46.045866-77.312l4.5056-40.1408a237.6192 237.6192 0 0 0-71.850667-40.277334z m-79.7696 75.605334c78.8992 0 143.069867 62.173867 143.069867 138.5984 0 76.4416-64.170667 138.615467-143.069867 138.615466-78.882133 0-143.0528-62.173867-143.0528-138.615466 0-76.424533 64.170667-138.5984 143.0528-138.5984z m0 67.413333c-40.567467 0-73.454933 31.880533-73.454933 71.185067 0 39.3216 32.887467 71.185067 73.454933 71.185066 39.355733 0 71.4752-29.969067 73.386667-67.618133l0.085333-3.549867c-0.0512-38.109867-30.941867-69.205333-69.802667-71.099733l-3.669333-0.085333z" fill="#ffffff" p-id="3022"></path></svg>